<svg version="1.1" id="Layer_1" xmlns="http://www.w3.org/2000/svg" xmlns:xlink="http://www.w3.org/1999/xlink" x="0px" y="0px"
	 width="100%" viewBox="0 0 641 632" enable-background="new 0 0 641 632" xml:space="preserve">
<path fill="#FEFEFE" opacity="1.000000" stroke="none" 
	d="
M1.000000,210.000000 
	C1.000000,140.013641 1.000000,70.527275 1.000000,1.020456 
	C214.611099,1.020456 428.222198,1.020456 641.916626,1.020456 
	C641.916626,211.569733 641.916626,422.139526 641.916626,632.854614 
	C428.333405,632.854614 214.666718,632.854614 1.000000,632.854614 
	C1.000000,492.111053 1.000000,351.305511 1.000000,210.000000 
M634.012695,475.500000 
	C634.014221,326.860962 634.016785,178.221893 634.015076,29.582850 
	C634.014954,19.112558 627.076660,12.135020 616.703247,12.135015 
	C421.072784,12.134916 225.442291,12.178656 29.812040,11.978724 
	C21.797672,11.970533 17.124886,15.752838 14.143699,21.918739 
	C12.203032,25.932564 11.288112,30.832697 11.284940,35.336735 
	C11.150572,226.134659 11.170324,416.932709 11.177981,607.730713 
	C11.178061,609.729065 11.124681,611.743530 11.343969,613.723022 
	C12.293944,622.298340 15.153103,624.863220 23.571159,624.863281 
	C224.200699,624.865356 424.830231,624.867676 625.459778,624.868774 
	C630.974365,624.868835 633.239441,622.935730 633.920715,617.468689 
	C634.125488,615.825745 634.010925,614.140625 634.011047,612.474854 
	C634.014099,567.149902 634.013000,521.824951 634.012695,475.500000 
z"/>
<path fill="#565A5C" opacity="1.000000" stroke="none" 
	d="
M634.012695,476.000000 
	C634.013000,521.824951 634.014099,567.149902 634.011047,612.474854 
	C634.010925,614.140625 634.125488,615.825745 633.920715,617.468689 
	C633.239441,622.935730 630.974365,624.868835 625.459778,624.868774 
	C424.830231,624.867676 224.200699,624.865356 23.571159,624.863281 
	C15.153103,624.863220 12.293944,622.298340 11.343969,613.723022 
	C11.124681,611.743530 11.178061,609.729065 11.177981,607.730713 
	C11.170324,416.932709 11.150572,226.134659 11.284940,35.336735 
	C11.288112,30.832697 12.203032,25.932564 14.143699,21.918739 
	C17.124886,15.752838 21.797672,11.970533 29.812040,11.978724 
	C225.442291,12.178656 421.072784,12.134916 616.703247,12.135015 
	C627.076660,12.135020 634.014954,19.112558 634.015076,29.582850 
	C634.016785,178.221893 634.014221,326.860962 634.012695,476.000000 
M589.660278,120.500061 
	C589.660278,98.904678 589.660278,77.309288 589.660278,55.646950 
	C411.669464,55.646950 234.463928,55.646950 57.370209,55.646950 
	C57.370209,233.231445 57.370209,410.424896 57.370209,587.609009 
	C234.891510,587.609009 411.960358,587.609009 589.659912,587.609009 
	C589.659912,432.030182 589.659912,276.765137 589.660278,120.500061 
z"/>
<path fill="#FEFDFD" opacity="1.000000" stroke="none" 
	d="
M589.660095,121.000069 
	C589.659912,276.765137 589.659912,432.030182 589.659912,587.609009 
	C411.960358,587.609009 234.891510,587.609009 57.370209,587.609009 
	C57.370209,410.424896 57.370209,233.231445 57.370209,55.646950 
	C234.463928,55.646950 411.669464,55.646950 589.660278,55.646950 
	C589.660278,77.309288 589.660278,98.904678 589.660095,121.000069 
M323.287079,281.877014 
	C321.534027,280.203735 319.747131,278.564362 318.032959,276.852142 
	C290.461975,249.311981 262.998169,221.663010 235.223694,194.329681 
	C231.357727,190.525116 231.080902,187.554993 232.698685,182.715271 
	C247.708389,137.812012 215.408722,89.059464 168.416580,85.363152 
	C119.454491,81.511887 80.842438,122.800240 87.915314,171.444138 
	C94.558212,217.130814 142.706009,245.980026 186.249771,230.243805 
	C189.672562,229.006836 191.872620,229.228378 194.551941,231.927536 
	C221.997864,259.576508 249.596588,287.073761 277.119965,314.645996 
	C279.446716,316.976898 281.537140,319.543762 283.160797,322.271179 
	C253.386795,352.069000 223.577469,381.831787 193.902161,411.727570 
	C191.379898,414.268585 189.300491,413.920227 186.400940,412.938934 
	C139.628448,397.109650 92.296684,427.401611 87.148857,476.384949 
	C82.922836,516.596985 113.587624,553.882874 154.065109,557.749817 
	C207.986450,562.901123 249.422226,511.094299 232.236664,459.772949 
	C230.662094,455.070801 231.546494,452.417206 234.953522,449.036469 
	C264.379181,419.838104 293.591553,390.424774 323.514404,361.273743 
	C353.696594,391.371368 383.904510,421.443420 413.960236,451.666809 
	C415.079895,452.792664 415.482941,455.651215 414.935303,457.266815 
	C399.159790,503.804932 426.871979,549.864136 475.115662,557.066711 
	C528.883301,565.093872 573.190186,512.560913 556.377625,460.717407 
	C543.316406,420.441498 500.783020,399.058838 460.711151,412.826233 
	C456.769287,414.180511 454.488983,413.461609 451.645081,410.597626 
	C425.005463,383.769318 398.191315,357.114380 371.474182,330.362854 
	C368.478516,327.363312 365.770599,324.076324 363.525848,320.639404 
	C393.104950,291.078918 422.707153,261.541412 452.217896,231.912811 
	C454.491669,229.629974 456.298462,228.918365 459.575348,230.082520 
	C477.006897,236.275314 494.472107,236.137894 511.850098,229.582031 
	C543.567688,217.616501 563.863647,183.897614 559.148987,150.913452 
	C553.992676,114.840073 525.909729,87.830627 490.963928,85.334747 
	C436.730103,81.461311 396.798035,133.568954 414.761505,184.959167 
	C415.973022,188.425171 415.329346,190.353943 412.893036,192.745514 
	C401.480896,203.947968 390.218628,215.303528 378.933655,226.635071 
	C360.605652,245.038635 342.301666,263.466125 323.287079,281.877014 
z"/>
<path fill="#D4031F" opacity="1.000000" stroke="none" 
	d="
M283.737335,322.001007 
	C281.537140,319.543762 279.446716,316.976898 277.119965,314.645996 
	C249.596588,287.073761 221.997864,259.576508 194.551941,231.927536 
	C191.872620,229.228378 189.672562,229.006836 186.249771,230.243805 
	C142.706009,245.980026 94.558212,217.130814 87.915314,171.444138 
	C80.842438,122.800240 119.454491,81.511887 168.416580,85.363152 
	C215.408722,89.059464 247.708389,137.812012 232.698685,182.715271 
	C231.080902,187.554993 231.357727,190.525116 235.223694,194.329681 
	C262.998169,221.663010 290.461975,249.311981 318.032959,276.852142 
	C319.747131,278.564362 321.534027,280.203735 323.730347,282.210815 
	C326.588043,285.042603 328.950531,287.593445 331.425903,290.029510 
	C341.908722,300.345795 352.425110,310.627991 362.929260,320.922638 
	C365.770599,324.076324 368.478516,327.363312 371.474182,330.362854 
	C398.191315,357.114380 425.005463,383.769318 451.645081,410.597626 
	C454.488983,413.461609 456.769287,414.180511 460.711151,412.826233 
	C500.783020,399.058838 543.316406,420.441498 556.377625,460.717407 
	C573.190186,512.560913 528.883301,565.093872 475.115662,557.066711 
	C426.871979,549.864136 399.159790,503.804932 414.935303,457.266815 
	C415.482941,455.651215 415.079895,452.792664 413.960236,451.666809 
	C383.904510,421.443420 353.696594,391.371368 323.105804,360.853210 
	C314.628510,352.290802 306.610260,344.098083 298.471954,336.026428 
	C293.658539,331.252380 288.655243,326.669708 283.737335,322.001007 
M449.098297,465.891571 
	C444.403290,477.991241 443.671661,489.794952 450.013092,501.815216 
	C459.523132,519.841614 479.264313,526.297058 496.684723,521.354980 
	C516.288940,515.793457 529.958984,493.051453 523.099854,471.998993 
	C516.546692,451.885834 498.127777,440.881256 477.317291,444.481537 
	C464.641235,446.674500 455.955963,454.546143 449.098297,465.891571 
M185.128677,128.311615 
	C174.415939,120.661888 163.031418,117.759422 150.015076,122.065681 
	C127.774429,129.423660 117.542557,150.972305 124.073669,172.830261 
	C127.697136,184.957047 142.498596,198.824631 159.631577,199.359940 
	C185.104980,200.155884 200.980240,181.456360 201.455917,159.859665 
	C201.725769,147.607803 196.738876,136.187149 185.128677,128.311615 
z"/>
<path fill="#57595C" opacity="1.000000" stroke="none" 
	d="
M283.449066,322.136108 
	C288.655243,326.669708 293.658539,331.252380 298.471954,336.026428 
	C306.610260,344.098083 314.628510,352.290802 322.782349,360.754089 
	C293.591553,390.424774 264.379181,419.838104 234.953522,449.036469 
	C231.546494,452.417206 230.662094,455.070801 232.236664,459.772949 
	C249.422226,511.094299 207.986450,562.901123 154.065109,557.749817 
	C113.587624,553.882874 82.922836,516.596985 87.148857,476.384949 
	C92.296684,427.401611 139.628448,397.109650 186.400940,412.938934 
	C189.300491,413.920227 191.379898,414.268585 193.902161,411.727570 
	C223.577469,381.831787 253.386795,352.069000 283.449066,322.136108 
M184.751511,450.571533 
	C175.566147,445.593567 166.109879,442.247314 155.324020,444.037811 
	C141.416367,446.346436 131.328842,453.941071 125.532433,466.400848 
	C115.958046,486.981506 124.923347,512.485535 148.400726,520.735168 
	C173.470779,529.544373 199.696716,511.330109 201.077103,485.984985 
	C201.867920,471.464600 195.857681,460.295013 184.751511,450.571533 
z"/>
<path fill="#57595C" opacity="1.000000" stroke="none" 
	d="
M363.227539,320.781006 
	C352.425110,310.627991 341.908722,300.345795 331.425903,290.029510 
	C328.950531,287.593445 326.588043,285.042603 324.080597,282.214050 
	C342.301666,263.466125 360.605652,245.038635 378.933655,226.635071 
	C390.218628,215.303528 401.480896,203.947968 412.893036,192.745514 
	C415.329346,190.353943 415.973022,188.425171 414.761505,184.959167 
	C396.798035,133.568954 436.730103,81.461311 490.963928,85.334747 
	C525.909729,87.830627 553.992676,114.840073 559.148987,150.913452 
	C563.863647,183.897614 543.567688,217.616501 511.850098,229.582031 
	C494.472107,236.137894 477.006897,236.275314 459.575348,230.082520 
	C456.298462,228.918365 454.491669,229.629974 452.217896,231.912811 
	C422.707153,261.541412 393.104950,291.078918 363.227539,320.781006 
M502.317902,123.961617 
	C500.278961,123.297119 498.226105,122.672150 496.203186,121.962036 
	C475.564758,114.717323 450.842285,128.272614 445.883575,152.143921 
	C441.597412,172.777420 456.262024,197.041702 480.923248,199.413223 
	C503.986694,201.631073 523.815125,184.219666 524.719849,161.841980 
	C525.391785,145.221649 517.923279,132.386078 502.317902,123.961617 
z"/>
<path fill="#585659" opacity="1.000000" stroke="none" 
	d="
M449.304077,465.571472 
	C455.955963,454.546143 464.641235,446.674500 477.317291,444.481537 
	C498.127777,440.881256 516.546692,451.885834 523.099854,471.998993 
	C529.958984,493.051453 516.288940,515.793457 496.684723,521.354980 
	C479.264313,526.297058 459.523132,519.841614 450.013092,501.815216 
	C443.671661,489.794952 444.403290,477.991241 449.304077,465.571472 
z"/>
<path fill="#575659" opacity="1.000000" stroke="none" 
	d="
M185.341034,128.598694 
	C196.738876,136.187149 201.725769,147.607803 201.455917,159.859665 
	C200.980240,181.456360 185.104980,200.155884 159.631577,199.359940 
	C142.498596,198.824631 127.697136,184.957047 124.073669,172.830261 
	C117.542557,150.972305 127.774429,129.423660 150.015076,122.065681 
	C163.031418,117.759422 174.415939,120.661888 185.341034,128.598694 
z"/>
<path fill="#D3021E" opacity="1.000000" stroke="none" 
	d="
M185.036530,450.797729 
	C195.857681,460.295013 201.867920,471.464600 201.077103,485.984985 
	C199.696716,511.330109 173.470779,529.544373 148.400726,520.735168 
	C124.923347,512.485535 115.958046,486.981506 125.532433,466.400848 
	C131.328842,453.941071 141.416367,446.346436 155.324020,444.037811 
	C166.109879,442.247314 175.566147,445.593567 185.036530,450.797729 
z"/>
<path fill="#D3021E" opacity="1.000000" stroke="none" 
	d="
M502.620392,124.187180 
	C517.923279,132.386078 525.391785,145.221649 524.719849,161.841980 
	C523.815125,184.219666 503.986694,201.631073 480.923248,199.413223 
	C456.262024,197.041702 441.597412,172.777420 445.883575,152.143921 
	C450.842285,128.272614 475.564758,114.717323 496.203186,121.962036 
	C498.226105,122.672150 500.278961,123.297119 502.620392,124.187180 
z"/>
</svg>